<svg width="192" height="230" viewBox="0 0 192 230" fill="none" xmlns="http://www.w3.org/2000/svg">
<rect y="19" width="192" height="192" fill="#D9D9D9"/>
<mask id="path-2-outside-1_508_5" maskUnits="userSpaceOnUse" x="25" y="45" width="153" height="138" fill="black">
<rect fill="white" x="25" y="45" width="153" height="138"/>
<path d="M130.256 159.8C131.792 164.28 133.264 167.544 134.672 169.592C136.08 171.512 137.744 172.792 139.664 173.432C141.712 173.944 144.4 174.328 147.728 174.584V179H101.84V174.584C106.192 174.328 109.392 173.88 111.44 173.24C113.616 172.6 114.832 171.256 115.088 169.208C115.344 167.16 114.704 164.024 113.168 159.8L102.224 126.776C101.584 127.416 100.624 127.864 99.344 128.12C98.064 128.248 96.72 128.312 95.312 128.312H70.16C67.344 128.312 65.232 128.632 63.824 129.272C62.416 129.912 61.2 131.64 60.176 134.456L51.152 159.8C49.488 164.664 49.488 168.312 51.152 170.744C52.944 173.048 57.936 174.328 66.128 174.584V179H26.384V174.584C30.48 174.328 33.68 173.048 35.984 170.744C38.416 168.312 40.528 164.664 42.32 159.8L76.304 66.488C77.584 63.16 78.8 59.896 79.952 56.696C81.104 53.496 82.128 50.232 83.024 46.904H92.432C93.328 50.232 94.288 53.496 95.312 56.696C96.464 59.896 97.68 63.16 98.96 66.488L130.256 159.8ZM95.696 121.4C97.36 121.4 98.512 121.208 99.152 120.824C99.792 120.312 99.792 119.288 99.152 117.752L83.408 71.096H83.024L64.592 121.976C65.232 121.72 66 121.592 66.896 121.592C67.792 121.464 68.816 121.4 69.968 121.4H95.696ZM166.499 181.88C163.683 181.88 161.315 180.92 159.395 179C157.475 177.08 156.515 174.712 156.515 171.896C156.515 169.208 157.475 166.904 159.395 164.984C161.315 163.064 163.683 162.104 166.499 162.104C169.315 162.104 171.683 163.064 173.603 164.984C175.523 166.904 176.483 169.208 176.483 171.896C176.483 174.712 175.523 177.08 173.603 179C171.683 180.92 169.315 181.88 166.499 181.88Z"/>
</mask>
<path d="M130.256 159.8C131.792 164.28 133.264 167.544 134.672 169.592C136.08 171.512 137.744 172.792 139.664 173.432C141.712 173.944 144.4 174.328 147.728 174.584V179H101.84V174.584C106.192 174.328 109.392 173.88 111.44 173.24C113.616 172.6 114.832 171.256 115.088 169.208C115.344 167.16 114.704 164.024 113.168 159.8L102.224 126.776C101.584 127.416 100.624 127.864 99.344 128.12C98.064 128.248 96.72 128.312 95.312 128.312H70.16C67.344 128.312 65.232 128.632 63.824 129.272C62.416 129.912 61.2 131.64 60.176 134.456L51.152 159.8C49.488 164.664 49.488 168.312 51.152 170.744C52.944 173.048 57.936 174.328 66.128 174.584V179H26.384V174.584C30.48 174.328 33.68 173.048 35.984 170.744C38.416 168.312 40.528 164.664 42.32 159.8L76.304 66.488C77.584 63.16 78.8 59.896 79.952 56.696C81.104 53.496 82.128 50.232 83.024 46.904H92.432C93.328 50.232 94.288 53.496 95.312 56.696C96.464 59.896 97.68 63.16 98.96 66.488L130.256 159.8ZM95.696 121.4C97.36 121.4 98.512 121.208 99.152 120.824C99.792 120.312 99.792 119.288 99.152 117.752L83.408 71.096H83.024L64.592 121.976C65.232 121.72 66 121.592 66.896 121.592C67.792 121.464 68.816 121.4 69.968 121.4H95.696ZM166.499 181.88C163.683 181.88 161.315 180.92 159.395 179C157.475 177.08 156.515 174.712 156.515 171.896C156.515 169.208 157.475 166.904 159.395 164.984C161.315 163.064 163.683 162.104 166.499 162.104C169.315 162.104 171.683 163.064 173.603 164.984C175.523 166.904 176.483 169.208 176.483 171.896C176.483 174.712 175.523 177.08 173.603 179C171.683 180.92 169.315 181.88 166.499 181.88Z" fill="#1E1E1E"/>
<path d="M130.256 159.8L129.308 160.118L129.31 160.124L130.256 159.8ZM134.672 169.592L133.848 170.159L133.857 170.171L133.866 170.183L134.672 169.592ZM139.664 173.432L139.348 174.381L139.384 174.393L139.421 174.402L139.664 173.432ZM147.728 174.584H148.728V173.658L147.805 173.587L147.728 174.584ZM147.728 179V180H148.728V179H147.728ZM101.84 179H100.84V180H101.84V179ZM101.84 174.584L101.781 173.586L100.84 173.641V174.584H101.84ZM111.44 173.24L111.158 172.281L111.15 172.283L111.142 172.286L111.44 173.24ZM115.088 169.208L114.096 169.084L114.096 169.084L115.088 169.208ZM113.168 159.8L112.219 160.115L112.223 160.128L112.228 160.142L113.168 159.8ZM102.224 126.776L103.173 126.461L102.663 124.923L101.517 126.069L102.224 126.776ZM99.344 128.12L99.4435 129.115L99.4922 129.11L99.5401 129.101L99.344 128.12ZM63.824 129.272L64.2378 130.182L64.2378 130.182L63.824 129.272ZM60.176 134.456L59.2362 134.114L59.2339 134.121L60.176 134.456ZM51.152 159.8L50.2099 159.465L50.2058 159.476L51.152 159.8ZM51.152 170.744L50.3267 171.309L50.3439 171.334L50.3627 171.358L51.152 170.744ZM66.128 174.584H67.128V173.615L66.1592 173.584L66.128 174.584ZM66.128 179V180H67.128V179H66.128ZM26.384 179H25.384V180H26.384V179ZM26.384 174.584L26.3216 173.586L25.384 173.645V174.584H26.384ZM35.984 170.744L35.2769 170.037L35.2769 170.037L35.984 170.744ZM42.32 159.8L43.2583 160.146L43.2596 160.142L42.32 159.8ZM76.304 66.488L75.3707 66.129L75.3674 66.1374L75.3644 66.1458L76.304 66.488ZM79.952 56.696L80.8929 57.0347L80.8929 57.0347L79.952 56.696ZM83.024 46.904V45.904H82.2576L82.0584 46.644L83.024 46.904ZM92.432 46.904L93.3976 46.644L93.1984 45.904H92.432V46.904ZM95.312 56.696L94.3596 57.0008L94.365 57.0178L94.3711 57.0347L95.312 56.696ZM98.96 66.488L99.9081 66.17L99.9012 66.1494L99.8934 66.129L98.96 66.488ZM99.152 120.824L99.6665 121.681L99.7242 121.647L99.7767 121.605L99.152 120.824ZM99.152 117.752L98.2045 118.072L98.2156 118.105L98.2289 118.137L99.152 117.752ZM83.408 71.096L84.3555 70.7763L84.126 70.096H83.408V71.096ZM83.024 71.096V70.096H82.3227L82.0838 70.7554L83.024 71.096ZM64.592 121.976L63.6518 121.635L62.8919 123.733L64.9634 122.904L64.592 121.976ZM66.896 121.592V122.592H66.9671L67.0374 122.582L66.896 121.592ZM129.31 160.124C130.854 164.628 132.361 167.996 133.848 170.159L135.496 169.025C134.167 167.092 132.73 163.932 131.202 159.476L129.31 160.124ZM133.866 170.183C135.374 172.24 137.198 173.664 139.348 174.381L139.98 172.483C138.29 171.92 136.786 170.784 135.478 169.001L133.866 170.183ZM139.421 174.402C141.546 174.933 144.296 175.323 147.651 175.581L147.805 173.587C144.504 173.333 141.878 172.955 139.907 172.462L139.421 174.402ZM146.728 174.584V179H148.728V174.584H146.728ZM147.728 178H101.84V180H147.728V178ZM102.84 179V174.584H100.84V179H102.84ZM101.899 175.582C106.267 175.325 109.568 174.873 111.738 174.194L111.142 172.286C109.216 172.887 106.117 173.331 101.781 173.586L101.899 175.582ZM111.722 174.199C112.943 173.84 113.966 173.262 114.726 172.423C115.49 171.578 115.93 170.53 116.08 169.332L114.096 169.084C113.99 169.934 113.694 170.582 113.242 171.081C112.786 171.586 112.113 172 111.158 172.281L111.722 174.199ZM116.08 169.332C116.368 167.028 115.649 163.695 114.108 159.458L112.228 160.142C113.759 164.353 114.32 167.292 114.096 169.084L116.08 169.332ZM114.117 159.485L103.173 126.461L101.275 127.091L112.219 160.115L114.117 159.485ZM101.517 126.069C101.066 126.52 100.316 126.906 99.1479 127.139L99.5401 129.101C100.932 128.822 102.102 128.312 102.931 127.483L101.517 126.069ZM99.2445 127.125C98.0005 127.249 96.6898 127.312 95.312 127.312V129.312C96.7502 129.312 98.1275 129.247 99.4435 129.115L99.2445 127.125ZM95.312 127.312H70.16V129.312H95.312V127.312ZM70.16 127.312C67.2995 127.312 65.0149 127.632 63.4102 128.362L64.2378 130.182C65.4491 129.632 67.3885 129.312 70.16 129.312V127.312ZM63.4102 128.362C61.6105 129.18 60.2759 131.255 59.2362 134.114L61.1158 134.798C62.1241 132.025 63.2215 130.644 64.2378 130.182L63.4102 128.362ZM59.2339 134.121L50.2099 159.465L52.0941 160.135L61.1181 134.791L59.2339 134.121ZM50.2058 159.476C48.5136 164.423 48.3863 168.473 50.3267 171.309L51.9773 170.179C50.5897 168.151 50.4624 164.905 52.0982 160.124L50.2058 159.476ZM50.3627 171.358C51.4649 172.775 53.4273 173.743 55.9916 174.401C58.5876 175.066 61.965 175.454 66.0968 175.584L66.1592 173.584C62.099 173.458 58.8844 173.078 56.4884 172.463C54.0607 171.841 52.6311 171.017 51.9414 170.13L50.3627 171.358ZM65.128 174.584V179H67.128V174.584H65.128ZM66.128 178H26.384V180H66.128V178ZM27.384 179V174.584H25.384V179H27.384ZM26.4464 175.582C30.7203 175.315 34.1736 173.969 36.6911 171.451L35.2769 170.037C33.1864 172.127 30.2397 173.341 26.3216 173.586L26.4464 175.582ZM36.6911 171.451C39.2639 168.878 41.4394 165.083 43.2583 160.146L41.3817 159.454C39.6166 164.245 37.5681 167.746 35.2769 170.037L36.6911 171.451ZM43.2596 160.142L77.2436 66.8302L75.3644 66.1458L41.3804 159.458L43.2596 160.142ZM77.2374 66.847C78.5198 63.5126 79.7383 60.2418 80.8929 57.0347L79.0111 56.3573C77.8617 59.5502 76.6482 62.8074 75.3707 66.129L77.2374 66.847ZM80.8929 57.0347C82.0543 53.8085 83.0866 50.5182 83.9896 47.164L82.0584 46.644C81.1694 49.9458 80.1537 53.1835 79.0111 56.3573L80.8929 57.0347ZM83.024 47.904H92.432V45.904H83.024V47.904ZM91.4664 47.164C92.3663 50.5066 93.3307 53.7856 94.3596 57.0008L96.2644 56.3912C95.2453 53.2064 94.2897 49.9574 93.3976 46.644L91.4664 47.164ZM94.3711 57.0347C95.5257 60.2418 96.7442 63.5126 98.0267 66.847L99.8934 66.129C98.6158 62.8074 97.4023 59.5502 96.2529 56.3573L94.3711 57.0347ZM98.0119 66.806L129.308 160.118L131.204 159.482L99.9081 66.17L98.0119 66.806ZM95.696 122.4C97.3686 122.4 98.7703 122.219 99.6665 121.681L98.6375 119.967C98.2537 120.197 97.3514 120.4 95.696 120.4V122.4ZM99.7767 121.605C100.392 121.113 100.632 120.405 100.632 119.672C100.632 118.971 100.418 118.19 100.075 117.367L98.2289 118.137C98.526 118.85 98.632 119.349 98.632 119.672C98.632 119.963 98.552 120.023 98.5273 120.043L99.7767 121.605ZM100.1 117.432L84.3555 70.7763L82.4605 71.4157L98.2045 118.072L100.1 117.432ZM83.408 70.096H83.024V72.096H83.408V70.096ZM82.0838 70.7554L63.6518 121.635L65.5322 122.317L83.9642 71.4366L82.0838 70.7554ZM64.9634 122.904C65.4557 122.708 66.0909 122.592 66.896 122.592V120.592C65.9091 120.592 65.0083 120.732 64.2206 121.048L64.9634 122.904ZM67.0374 122.582C67.876 122.462 68.8512 122.4 69.968 122.4V120.4C68.7808 120.4 67.708 120.466 66.7546 120.602L67.0374 122.582ZM69.968 122.4H95.696V120.4H69.968V122.4ZM159.395 164.984L158.688 164.277L158.688 164.277L159.395 164.984ZM173.603 164.984L174.31 164.277L174.31 164.277L173.603 164.984ZM166.499 180.88C163.937 180.88 161.827 180.018 160.102 178.293L158.688 179.707C160.803 181.822 163.429 182.88 166.499 182.88V180.88ZM160.102 178.293C158.377 176.568 157.515 174.458 157.515 171.896H155.515C155.515 174.966 156.573 177.592 158.688 179.707L160.102 178.293ZM157.515 171.896C157.515 169.476 158.368 167.426 160.102 165.691L158.688 164.277C156.582 166.382 155.515 168.94 155.515 171.896H157.515ZM160.102 165.691C161.827 163.966 163.937 163.104 166.499 163.104V161.104C163.429 161.104 160.803 162.162 158.688 164.277L160.102 165.691ZM166.499 163.104C169.061 163.104 171.171 163.966 172.896 165.691L174.31 164.277C172.195 162.162 169.569 161.104 166.499 161.104V163.104ZM172.896 165.691C174.63 167.426 175.483 169.476 175.483 171.896H177.483C177.483 168.94 176.416 166.382 174.31 164.277L172.896 165.691ZM175.483 171.896C175.483 174.458 174.621 176.568 172.896 178.293L174.31 179.707C176.425 177.592 177.483 174.966 177.483 171.896H175.483ZM172.896 178.293C171.171 180.018 169.061 180.88 166.499 180.88V182.88C169.569 182.88 172.195 181.822 174.31 179.707L172.896 178.293Z" fill="black" mask="url(#path-2-outside-1_508_5)"/>
</svg>
